<svg id="Capa_1" data-name="Capa 1" xmlns="http://www.w3.org/2000/svg" viewBox="0 0 396.85 67.41"><defs><style>.cls-1{fill:#7a61d3;}.cls-2{fill:#8af1ff;}.cls-3{fill:#fff;}</style></defs><title>LogotipoSVG-Oficial-01-06</title><path class="cls-1" d="M290.39,20.38a10.47,10.47,0,1,1-6.81-9.85,10.32,10.32,0,0,1,6.81,9.85h0" transform="translate(-0.29 -0.39)"/><path class="cls-2" d="M249.14,13.93a15,15,0,0,0-11.07,4.31V14.83h-8.68v53h9.26V50.46a14,14,0,0,0,10,3.8c10.36,0,17.59-8.29,17.59-20.16s-6.86-20.17-17.07-20.17m7.74,20.25c0,7.08-3.74,11.84-9.33,11.84-6,0-9.13-5.92-9.13-11.78,0-11,7.15-11.91,9.34-11.91,5.46,0,9.12,4.76,9.12,11.85" transform="translate(-0.29 -0.39)"/><path class="cls-1" d="M304.83,19.64a21.74,21.74,0,0,0-29.3,0,20.27,20.27,0,0,0-.29,28.66l.29.28a21.66,21.66,0,0,0,29.32,0,19.85,19.85,0,0,0,6.08-14.52,19.59,19.59,0,0,0-6.1-14.42" transform="translate(-0.29 -0.39)"/><rect class="cls-2" x="316.17" y="0.08" width="9.33" height="9.39"/><rect class="cls-2" x="316.24" y="14.44" width="9.26" height="38.61"/><path class="cls-2" d="M355.58,13.93a16.13,16.13,0,0,0-12.49,5.65V14.83h-9V53.44h9.24V35.29a16.38,16.38,0,0,1,.53-4.57,10.74,10.74,0,0,1,10.39-8.06c4.18,0,5.75,2.16,5.75,8V53.44h9.24V29.05c0-10-4.58-15.09-13.63-15.09" transform="translate(-0.29 -0.39)"/><path class="cls-2" d="M397.15,44.86l-1.39.29a7.45,7.45,0,0,1-1.41.11c-3,0-6.61-1.21-6.61-7v-15h8.76V15.33h-8.76V3.91l-9-3.52V15.33h-4.95v7.89h4.74V39c0,13.28,10.54,14.71,15.07,14.71a17.37,17.37,0,0,0,2.6-.16l1-.13V44.86Z" transform="translate(-0.29 -0.39)"/><path class="cls-1" d="M20,13.93A15,15,0,0,0,8.94,18.25v-3.4H.29V67.78H9.52V50.41a14,14,0,0,0,10,3.85c10.34,0,17.57-8.27,17.57-20.15S30.23,13.93,20,13.93m7.76,20.21C27.79,41.24,24,46,18.45,46c-6,0-9.15-5.92-9.15-11.79,0-11.07,7.16-11.94,9.36-11.94,5.47,0,9.13,4.84,9.13,11.87" transform="translate(-0.29 -0.39)"/><path class="cls-1" d="M68.06,33c0,6.26-3.64,12.59-10.65,12.59-4.19,0-5.68-2.07-5.68-7.92V14.85H42.51V39.23c0,10,4.56,15.05,13.55,15.05a16.12,16.12,0,0,0,12.23-5.57v4.71h9V14.85H68.06Z" transform="translate(-0.29 -0.39)"/><path class="cls-1" d="M107.1,13.93a16.1,16.1,0,0,0-12.49,5.69V14.78h-9V53.42H94.8V35.29a15.7,15.7,0,0,1,.53-4.58,10.75,10.75,0,0,1,10.41-8.07c4.19,0,5.76,2.16,5.76,8V53.42h9.21V29.05c0-10-4.58-15.06-13.61-15.06" transform="translate(-0.29 -0.39)"/><path class="cls-1" d="M186.58,19.66a21.77,21.77,0,0,0-29.29,0A20.21,20.21,0,0,0,157,48.24l.32.33a21.62,21.62,0,0,0,29.29,0A20.22,20.22,0,0,0,186.9,20c-.1-.11-.21-.22-.32-.32m-3.23,14.4a11.37,11.37,0,1,1-22.73.86c0-.28,0-.57,0-.86a11.37,11.37,0,0,1,22.73,0" transform="translate(-0.29 -0.39)"/><path class="cls-1" d="M212.39,30.19c-3.5-1.39-6.53-2.58-6.53-4.6,0-3.22,4-3.32,4.84-3.32a12.4,12.4,0,0,1,8.15,2.95l1.06,1.07L223.82,19l-.55-.6c-.16-.17-4.16-4.37-12.54-4.37s-14.26,4.71-14.26,11.46c0,7.52,6.66,10.21,12,12.37,3.57,1.44,6.65,2.68,6.65,4.84s-2.47,3.41-4.84,3.41a14.69,14.69,0,0,1-9.6-3.89l-1-1-4.66,6.84.61.64a20.47,20.47,0,0,0,14.53,5.68c8.4,0,14.26-4.84,14.26-11.68,0-7.6-6.71-10.26-12.12-12.41" transform="translate(-0.29 -0.39)"/><path class="cls-1" d="M148.64,45.16a8.42,8.42,0,0,1-1.42.12c-3,0-6.61-1.21-6.61-7.05v-15h8.76V15.35h-8.76V3.91l-9-3.49V15.35h-4.95v7.86h4.73V39c0,13.26,10.54,14.7,15.05,14.7a20.83,20.83,0,0,0,2.62-.17l1-.13V44.87Z" transform="translate(-0.29 -0.39)"/><path class="cls-3" d="M288.23,14.06a20.82,20.82,0,0,0-12.75,5.58A19.62,19.62,0,0,0,271.05,26a10.47,10.47,0,0,0,19.36-5.65,10.33,10.33,0,0,0-2.18-6.27" transform="translate(-0.29 -0.39)"/></svg>